# xmcd
#
# Track frame offsets: 
#        150
#        12997
#        24132
#        47335
#        59455
#        74067
#        86150
#        98720
#        113010
#        125165
#        138772
#        150682
#
# Disc length: 2151 seconds
#
# Revision: 2
# Processed by: cddbd v1.5.1PL2 Copyright (c) Steve Scherf et al.
# Submitted via: ExactAudioCopy v0.95b3
#
DISCID=9a08650c
DTITLE=Various Artist - The Best of the Blues Rock Songbook
DYEAR=2003
DGENRE=Blues
TTITLE0=Muddy Waters - (I'm Your) Hoochie Coochie Man
TTITLE1=Howlin' Wolf - The Red Rooster
TTITLE2=John Lee Hooker - It Serves You Right to Suffer
TTITLE3=Little Walter - My Babe
TTITLE4=Eddie Boyd - Third Degree
TTITLE5=Chuck Berry - Johnny B. Goode
TTITLE6=Louis Jordan and his Tympany Five/ Let the Good Times Roll
TTITLE7=Lowell Fulson - Reconsider Baby
TTITLE8=Larry Davis - Texas Flood
TTITLE9=Bo Diddley - I'm A Man
TTITLE10=Bobby "Blue" Bland - Turn On Your Love Light
TTITLE11=Etta James - Tell Mama
EXTD=20th Century Masters Series\nThe Millenium Collection\nB000036502
EXTT0=1954
EXTT1=1961
EXTT2=1965
EXTT3=1955
EXTT4=1953
EXTT5=1957
EXTT6=1946
EXTT7=1954
EXTT8=1958
EXTT9=1955
EXTT10=1961
EXTT11=1967
PLAYORDER=
